<?xml version="1.0" encoding="UTF-8"?>
<svg width="42px" height="40px" viewBox="0 0 42 40" version="1.1" xmlns="http://www.w3.org/2000/svg" xmlns:xlink="http://www.w3.org/1999/xlink">
    <!-- Generator: Sketch 41.2 (35397) - http://www.bohemiancoding.com/sketch -->
    <title>Combined Shape</title>
    <desc>Created with Sketch.</desc>
    <defs></defs>
    <g id="Page-1" stroke="none" stroke-width="1" fill="none" fill-rule="evenodd">
        <path d="M6.49672245,22.8914042 L6.49672245,37.7505571 C6.49672245,38.853791 7.3957518,39.7474654 8.5047607,39.7474654 L33.0451931,39.7474654 C34.1672778,39.7474654 35.0532314,38.8534191 35.0532314,37.7505571 L35.0532314,22.946329 L36.111087,24.0041846 C36.8860374,24.779135 38.15781,24.7796181 38.9419175,23.9955106 L40.7919839,22.1454442 C41.5792797,21.3581484 41.5799748,20.0939308 40.8006579,19.3146138 L22.36755,0.881505894 C21.9308722,0.444828171 21.3364424,0.254061106 20.7604059,0.311015984 C20.17744,0.245247115 19.5731638,0.435821199 19.1274791,0.881505894 L0.694371204,19.3146138 C-0.0805791659,20.0895642 -0.0810622842,21.3613367 0.703045219,22.1454442 L2.5531116,23.9955106 C3.34040744,24.7828064 4.60462506,24.7835016 5.38394204,24.0041846 L6.49672245,22.8914042 Z" id="Combined-Shape" fill="#9B9B9B"></path>
    </g>
</svg>